<?xml version="1.0" standalone="no"?>
<!DOCTYPE svg PUBLIC "-//W3C//DTD SVG 20010904//EN"
 "http://www.w3.org/TR/2001/REC-SVG-20010904/DTD/svg10.dtd">
<svg version="1.0" xmlns="http://www.w3.org/2000/svg"
 width="600.000000pt" height="600.000000pt" viewBox="0 0 600.000000 600.000000"
 preserveAspectRatio="xMidYMid meet">
<metadata>
Created by potrace 1.11, written by Peter Selinger 2001-2013
</metadata>
<g transform="translate(0.000000,600.000000) scale(0.100000,-0.100000)"
fill="#000000" stroke="none">
<path d="M2715 5989 c-373 -38 -704 -133 -1040 -299 -308 -152 -552 -326 -795
-570 -550 -549 -855 -1255 -877 -2030 -15 -515 81 -958 307 -1415 152 -308
326 -552 570 -795 160 -160 295 -271 480 -392 508 -335 1095 -501 1710 -485
479 13 858 107 1281 319 430 215 830 560 1102 950 286 411 467 882 529 1378
17 137 17 563 0 700 -44 351 -134 653 -292 976 -218 443 -550 835 -952 1120
-387 274 -833 453 -1313 524 -161 24 -559 35 -710 19z m-330 -1755 c253 -41
460 -166 537 -326 67 -138 77 -336 24 -492 -58 -172 -200 -326 -370 -402 -36
-16 -66 -34 -66 -40 0 -6 7 -28 15 -48 9 -20 40 -126 70 -236 60 -216 84 -282
118 -319 67 -72 125 -43 335 163 l158 155 12 111 c43 383 150 737 363 1194 94
203 123 239 193 240 62 1 93 -25 141 -119 39 -78 40 -81 39 -185 0 -131 -18
-181 -143 -400 -76 -133 -92 -169 -110 -248 -11 -52 -21 -100 -21 -109 0 -8
19 11 43 43 107 145 249 216 432 216 149 0 245 -33 321 -109 56 -55 76 -112
82 -225 6 -124 -8 -217 -69 -460 -53 -214 -60 -281 -31 -297 37 -20 99 24 272
194 92 91 172 165 178 165 24 0 42 -45 42 -106 0 -165 -112 -347 -268 -437
-182 -105 -326 -167 -386 -167 -89 0 -168 54 -206 141 -55 130 -50 373 14 644
42 177 47 269 16 303 -26 27 -90 45 -135 36 -116 -21 -263 -218 -341 -454 -25
-76 -27 -96 -24 -190 9 -247 6 -312 -17 -355 -27 -52 -42 -65 -133 -114 -60
-33 -85 -41 -127 -41 -48 0 -54 3 -85 40 -45 52 -58 94 -65 215 l-6 100 -86
-85 c-96 -94 -201 -161 -321 -205 -60 -22 -94 -28 -165 -29 -113 -1 -168 18
-225 80 -65 71 -95 160 -124 369 -71 512 -65 488 -119 502 -85 23 -157 98
-157 163 0 41 30 81 78 103 60 27 178 29 236 4 l39 -17 48 51 c57 61 104 146
119 214 20 85 15 222 -10 287 -55 147 -193 217 -427 218 -205 0 -342 -34 -558
-140 -131 -64 -181 -78 -215 -60 -17 9 -20 17 -15 38 18 75 124 190 254 276
228 152 516 203 846 150z m-417 -484 c16 -46 7 -200 -20 -340 -11 -58 -49
-220 -86 -360 l-65 -255 -7 -310 c-6 -337 -9 -351 -66 -409 -48 -48 -188 -109
-262 -114 -55 -4 -66 -2 -87 18 -14 13 -32 46 -42 74 -24 69 -24 299 1 450 57
349 217 832 357 1078 98 171 244 260 277 168z"/>
</g>
</svg>
