<?xml version="1.0" standalone="no"?>
<!DOCTYPE svg PUBLIC "-//W3C//DTD SVG 20010904//EN"
 "http://www.w3.org/TR/2001/REC-SVG-20010904/DTD/svg10.dtd">
<svg version="1.0" xmlns="http://www.w3.org/2000/svg"
 width="560.000000pt" height="560.000000pt" viewBox="0 0 560.000000 560.000000"
 preserveAspectRatio="xMidYMid meet">
<metadata>
Created by potrace 1.11, written by Peter Selinger 2001-2013
</metadata>
<g transform="translate(0.000000,560.000000) scale(0.100000,-0.100000)"
fill="#000000" stroke="none">
<path d="M1819 4235 c-226 -57 -401 -235 -455 -461 -21 -89 -14 -235 15 -317
48 -136 74 -170 330 -430 l245 -247 -250 -253 c-273 -276 -297 -308 -334 -453
-55 -214 4 -429 160 -584 86 -87 164 -132 276 -160 146 -38 293 -21 434 47 68
33 99 61 328 287 l252 250 253 -250 c276 -273 308 -297 453 -334 214 -55 429
4 584 160 87 86 132 164 160 276 38 146 21 293 -47 434 -33 68 -61 99 -287
327 l-250 253 245 247 c256 260 282 294 330 430 28 81 35 219 16 310 -44 205
-198 378 -400 451 -62 23 -88 26 -192 27 -100 0 -132 -4 -193 -24 -120 -39
-180 -86 -434 -339 l-238 -236 -242 240 c-255 252 -307 293 -428 335 -83 28
-248 35 -331 14z"/>
</g>
</svg>
