<?xml version="1.0" standalone="no"?>
<!DOCTYPE svg PUBLIC "-//W3C//DTD SVG 20010904//EN"
 "http://www.w3.org/TR/2001/REC-SVG-20010904/DTD/svg10.dtd">
<svg version="1.0" xmlns="http://www.w3.org/2000/svg"
 width="618.000000pt" height="618.000000pt" viewBox="0 0 618.000000 618.000000"
 preserveAspectRatio="xMidYMid meet">
<metadata>
Created by potrace 1.11, written by Peter Selinger 2001-2013
</metadata>
<g transform="translate(0.000000,618.000000) scale(0.100000,-0.100000)"
fill="#000000" stroke="none">
<path d="M1080 6165 c-111 -19 -195 -43 -290 -82 -394 -163 -674 -504 -767
-936 -28 -126 -25 -380 5 -515 40 -181 120 -355 224 -492 31 -41 275 -293 542
-560 l486 -485 -499 -500 c-518 -521 -564 -574 -651 -745 -46 -92 -97 -250
-115 -360 -25 -146 -17 -376 18 -515 127 -503 529 -875 1036 -960 150 -25 379
-17 516 19 163 42 273 91 415 184 69 45 179 149 587 556 l503 500 502 -500
c356 -354 525 -515 578 -551 160 -108 332 -177 519 -208 147 -25 377 -17 516
18 501 126 872 525 960 1031 19 114 19 319 0 432 -21 115 -74 275 -127 378
-81 154 -167 251 -662 746 l-476 475 508 510 c529 531 555 561 640 730 147
295 172 656 66 975 -124 372 -433 680 -808 805 -116 39 -213 56 -352 62 -297
13 -567 -69 -816 -247 -35 -24 -285 -265 -556 -535 l-492 -489 -473 470 c-259
259 -500 494 -533 521 -125 102 -290 187 -454 235 -163 47 -390 61 -550 33z"/>
</g>
</svg>
