<!-- Generated by IcoMoon.io -->
<svg version="1.1" xmlns="http://www.w3.org/2000/svg" width="25" height="20" viewBox="0 0 25 20">
<title>camera</title>
<path d="M7.422 2.683c0-0.358 0.013-0.65 0-0.94-0.005-0.045-0.008-0.097-0.008-0.15 0-0.543 0.324-1.010 0.79-1.218 0.387-0.196 0.831-0.321 1.301-0.35 1.854-0.039 3.703-0.032 5.548-0 0.437 0.018 0.846 0.121 1.217 0.292 0.519 0.194 0.895 0.705 0.895 1.304 0 0.054-0.003 0.108-0.009 0.161-0.018 0.28 0.001 0.569 0.001 0.905h0.47c1.78 0 3.56 0.020 5.333-0.008 0.019-0.001 0.042-0.001 0.065-0.001 0.873 0 1.58 0.707 1.58 1.58 0 0.045-0.002 0.090-0.006 0.134-0.031 4.644-0.013 9.293-0.013 13.943 0.010 0.065 0.016 0.139 0.016 0.215 0 0.806-0.654 1.46-1.46 1.46-0.054 0-0.108-0.003-0.161-0.009l-21.388 0.001c-0.050 0.006-0.108 0.010-0.167 0.010-0.804 0-1.457-0.652-1.457-1.457 0-0.077 0.006-0.154 0.018-0.228q-0.001-6.992-0.001-13.982c-0.008-0.059-0.013-0.128-0.013-0.198 0-0.816 0.661-1.477 1.477-1.477 0.053 0 0.105 0.003 0.156 0.008q2.66-0.001 5.327-0.001h0.485zM12.288 16.517c0.050 0.002 0.108 0.003 0.167 0.003 2.853 0 5.167-2.313 5.167-5.167s-2.313-5.167-5.167-5.167c-2.853 0-5.165 2.312-5.167 5.164-0.001 0.032-0.001 0.069-0.001 0.107 0 2.774 2.234 5.026 5.002 5.055zM12.273 15.34c-0.042 0.002-0.091 0.002-0.14 0.002-2.209 0-4-1.791-4-4s1.791-4 4-4c2.209 0 4 1.791 4 4 0 0.005 0 0.010-0 0.015 0 0.014 0 0.031 0 0.048 0 2.146-1.72 3.889-3.857 3.928z"></path>
</svg>
