<!-- Generated by IcoMoon.io -->
<svg version="1.1" xmlns="http://www.w3.org/2000/svg" width="34" height="20" viewBox="0 0 34 20">
<title>deposit</title>
<path d="M4.615 15.385h24.615v-10.769h-24.615v10.769zM16.923 5.068c2.749 0 4.977 2.228 4.977 4.977s-2.228 4.978-4.977 4.978-4.977-2.229-4.977-4.978 2.228-4.977 4.977-4.977z"></path>
<path d="M29.865 0h-25.883c-2.209 0-3.982 1.872-3.982 4.072v11.948c0 2.214 1.783 3.98 3.982 3.98h25.882c2.211 0 3.983-1.783 3.983-3.982v-11.946c0-2.215-1.783-4.072-3.982-4.072zM32.308 16.025c0 1.095-1.346 2.437-2.458 2.437h-25.852c-1.108 0-2.458-1.354-2.458-2.437v-11.958c0-1.095 1.346-2.528 2.458-2.528h25.852c1.108 0 2.458 1.445 2.458 2.528v11.958z"></path>
</svg>
