<!-- Generated by IcoMoon.io -->
<svg version="1.1" xmlns="http://www.w3.org/2000/svg" width="30" height="20" viewBox="0 0 30 20">
<title>deposit-card</title>
<path d="M13.501 4.052h12.625c0.65 0 0.938-0.162 0.875-0.85s0-1.188 0-1.775c0.022-0.384-0.121-0.76-0.393-1.032s-0.648-0.415-1.032-0.393h-23.65c-1.525 0-1.913 0.388-1.925 1.913 0 2.5-0.125 2.138 2.162 2.138h11.338z"></path>
<path d="M27.587 15h-0.737v-5h-2.8v5h-2.8l3.075 3.275 1.137 1.25 1.25-1.25 0.863-0.925 2.138-2.275z"></path>
<path d="M18.375 14.038l1.5 1.675 2.5 2.612h-20.625c-1.338 0-1.75-0.412-1.75-1.738v-9.387c-0.013-0.763 0.237-0.95 0.963-0.95h25.137c0.675 0 0.875 0.2 0.875 0.875v1.913h-4.525v5h-4.075zM9.050 14.737v0.063c0.556-0.731 0.514-1.754-0.1-2.438-0.589-0.703-1.573-0.933-2.413-0.563-0.323 0.115-0.677 0.115-1 0-0.624-0.286-1.351-0.233-1.928 0.139s-0.925 1.012-0.922 1.699c0 0.675 0.346 1.304 0.916 1.666s1.285 0.408 1.897 0.122c0.35-0.174 0.762-0.174 1.112 0 0.871 0.401 1.905 0.11 2.438-0.688z"></path>
</svg>
