<!-- Generated by IcoMoon.io -->
<svg version="1.1" 
  xmlns="http://www.w3.org/2000/svg" width="20" height="20" viewBox="0 0 20 20">
  <title>analitycs</title>
  <path d="M14.99 18.943c-1.672-1.877-3.307-4.499-4.99-5.61 0.969 0 2.222 0 3.333 0 0-5.556 0-6.667 0-11.111 1.111 0 2.222 0 3.333 0 0 4.444 0 5.556 0 11.111 1.111 0 2.321 0 3.333 0-1.703 1.111-3.342 3.739-5.010 5.61z"></path>
  <path d="M6.667 18.889c-1.111 0-2.222 0-3.333 0 0-4.444 0-6.667 0-12.222-1.111 0-2.322 0-3.333 0 1.697 0 3.334-3.729 5.006-5.603 1.66 1.859 3.299 5.603 4.994 5.603-0.983 0-2.222 0-3.333 0 0 5.556 0 7.778 0 12.222z"></path>
</svg>
