<!-- Generated by IcoMoon.io -->
<svg version="1.1" xmlns="http://www.w3.org/2000/svg" width="28" height="20" viewBox="0 0 28 20">
<title>finance-history</title>
<path d="M2.035 0.059c-1.529 0-1.918 0.388-1.929 1.918 0 2.447-0.118 2.153 2.165 2.153h10.047v-4.059l-10.282-0.012z"></path>
<path d="M1.059 6.788c3.753 0.024 7.518 0.012 11.259 0.012v12.094h-10.471c-1.341 0-1.753-0.412-1.753-1.741v-9.412c-0.012-0.765 0.235-0.953 0.965-0.953zM6.753 16.012c0.877 0.384 1.904 0.075 2.424-0.729 0.514-0.711 0.48-1.68-0.082-2.353-0.588-0.705-1.572-0.935-2.412-0.565-0.323 0.115-0.677 0.115-1 0-0.627-0.291-1.359-0.24-1.939 0.135s-0.928 1.021-0.92 1.712c-0.003 0.677 0.341 1.308 0.911 1.673s1.287 0.413 1.901 0.127c0.349-0.188 0.769-0.188 1.118 0z"></path>
<path d="M14.282 17.594c0-0.718 0.575-1.3 1.293-1.3h10.403c0.714 0 1.293 0.577 1.293 1.3 0 0.718-0.575 1.3-1.293 1.3h-10.403c-0.714 0-1.293-0.577-1.293-1.3z"></path>
<path d="M14.282 12.182c0-0.718 0.575-1.3 1.293-1.3h10.403c0.714 0 1.293 0.577 1.293 1.3 0 0.718-0.575 1.3-1.293 1.3h-10.403c-0.714 0-1.293-0.577-1.293-1.3z"></path>
<path d="M14.282 6.771c0-0.718 0.575-1.3 1.293-1.3h10.403c0.714 0 1.293 0.577 1.293 1.3 0 0.718-0.575 1.3-1.293 1.3h-10.403c-0.714 0-1.293-0.577-1.293-1.3z"></path>
<path d="M14.282 1.359c0-0.718 0.575-1.3 1.293-1.3h10.403c0.714 0 1.293 0.577 1.293 1.3 0 0.718-0.575 1.3-1.293 1.3h-10.403c-0.714 0-1.293-0.577-1.293-1.3z"></path>
</svg>
