<!-- Generated by IcoMoon.io -->
<svg version="1.1" xmlns="http://www.w3.org/2000/svg" width="20" height="20" viewBox="0 0 20 20">
<title>focus</title>
<path d="M10 20c-5.523 0-10-4.477-10-10s4.477-10 10-10c5.523 0 10 4.477 10 10s-4.477 10-10 10zM10 17.5c4.142 0 7.5-3.358 7.5-7.5s-3.358-7.5-7.5-7.5c-4.142 0-7.5 3.358-7.5 7.5s3.358 7.5 7.5 7.5zM10 15c-2.762 0-5-2.238-5-5s2.238-5 5-5c2.762 0 5 2.238 5 5s-2.238 5-5 5zM10 12.5c1.38 0 2.5-1.12 2.5-2.5s-1.12-2.5-2.5-2.5c-1.38 0-2.5 1.12-2.5 2.5s1.12 2.5 2.5 2.5z"></path>
</svg>
