<svg width="43px" height="44px" viewBox="0 0 43 44" version="1.1" 
  xmlns="http://www.w3.org/2000/svg" 
  xmlns:xlink="http://www.w3.org/1999/xlink">
  <defs>
    <path d="M42.5,18 L22,18 L22,26.5 L33.8,26.5 C32.7,31.9 28.1,35 22,35 C14.8,35 9,29.2 9,22 C9,14.8 14.8,9 22,9 C25.1,9 27.9,10.1 30.1,11.9 L36.5,5.5 C32.6,2.1 27.6,0 22,0 C9.8,0 0,9.8 0,22 C0,34.2 9.8,44 22,44 C33,44 43,36 43,22 C43,20.7 42.8,19.3 42.5,18 Z" id="path-1"></path>
    <path d="M42.5,18 L22,18 L22,26.5 L33.8,26.5 C32.7,31.9 28.1,35 22,35 C14.8,35 9,29.2 9,22 C9,14.8 14.8,9 22,9 C25.1,9 27.9,10.1 30.1,11.9 L36.5,5.5 C32.6,2.1 27.6,0 22,0 C9.8,0 0,9.8 0,22 C0,34.2 9.8,44 22,44 C33,44 43,36 43,22 C43,20.7 42.8,19.3 42.5,18 Z" id="path-3"></path>
    <path d="M42.5,18 L22,18 L22,26.5 L33.8,26.5 C32.7,31.9 28.1,35 22,35 C14.8,35 9,29.2 9,22 C9,14.8 14.8,9 22,9 C25.1,9 27.9,10.1 30.1,11.9 L36.5,5.5 C32.6,2.1 27.6,0 22,0 C9.8,0 0,9.8 0,22 C0,34.2 9.8,44 22,44 C33,44 43,36 43,22 C43,20.7 42.8,19.3 42.5,18 Z" id="path-5"></path>
    <path d="M42.5,18 L22,18 L22,26.5 L33.8,26.5 C32.7,31.9 28.1,35 22,35 C14.8,35 9,29.2 9,22 C9,14.8 14.8,9 22,9 C25.1,9 27.9,10.1 30.1,11.9 L36.5,5.5 C32.6,2.1 27.6,0 22,0 C9.8,0 0,9.8 0,22 C0,34.2 9.8,44 22,44 C33,44 43,36 43,22 C43,20.7 42.8,19.3 42.5,18 Z" id="path-7"></path>
  </defs>
  <g id="Page-1" stroke="none" stroke-width="1" fill="none" fill-rule="evenodd">
    <g id="google">
      <g id="Clipped">
        <mask id="mask-2" fill="white">
          <use xlink:href="#path-1"></use>
        </mask>
        <g id="a"></g>
        <polygon id="Path" fill="#FBBC05" fill-rule="nonzero" mask="url(#mask-2)" points="-2 35 -2 9 15 22"></polygon>
      </g>
      <g id="Clipped">
        <mask id="mask-4" fill="white">
          <use xlink:href="#path-3"></use>
        </mask>
        <g id="a"></g>
        <polygon id="Path" fill="#EA4335" fill-rule="nonzero" mask="url(#mask-4)" points="-2 9 15 22 22 15.9 46 12 46 -2 -2 -2"></polygon>
      </g>
      <g id="Clipped">
        <mask id="mask-6" fill="white">
          <use xlink:href="#path-5"></use>
        </mask>
        <g id="a"></g>
        <polygon id="Path" fill="#34A853" fill-rule="nonzero" mask="url(#mask-6)" points="-2 35 28 12 35.9 13 46 -2 46 46 -2 46"></polygon>
      </g>
      <g id="Clipped">
        <mask id="mask-8" fill="white">
          <use xlink:href="#path-7"></use>
        </mask>
        <g id="a"></g>
        <polygon id="Path" fill="#4285F4" fill-rule="nonzero" mask="url(#mask-8)" points="46 46 15 22 11 19 46 9"></polygon>
      </g>
    </g>
  </g>
</svg>