<!-- Generated by IcoMoon.io -->
<svg version="1.1" xmlns="http://www.w3.org/2000/svg" width="22" height="20" viewBox="0 0 22 20">
<title>indicator-bollinger</title>
<path d="M0 9.153h21.695v1.356h-21.695v-1.356z"></path>
<path d="M10.915 17.017c-2.983 0.068-5.831-1.085-8-3.119l-2.034 2.102c2.712 2.576 6.305 4 10.034 3.932 3.729 0.068 7.39-1.356 10.102-3.932l-2.034-2.102c-2.169 2.102-5.085 3.186-8.068 3.119z"></path>
<path d="M10.915 2.915c2.983-0.068 5.831 1.085 8 3.119l2.034-2.102c-2.712-2.576-6.305-3.932-10.034-3.932-3.729-0.068-7.39 1.356-10.102 3.932l2.034 2.102c2.169-2.034 5.085-3.119 8.068-3.119z"></path>
</svg>
