<!-- Generated by IcoMoon.io -->
<svg version="1.1" 
  xmlns="http://www.w3.org/2000/svg" width="20" height="20" viewBox="0 0 20 20">
  <path d="M9.973 20c-5.511-0.015-9.973-4.487-9.973-10 0-5.523 4.477-10 10-10s10 4.477 10 10c0 0.013-0 0.027-0 0.040-0.035 5.507-4.509 9.96-10.023 9.96-0.001 0-0.002 0-0.004 0zM8.77 11.877c0 0.635 0 1.27 0 1.905 0 0.678 0.55 1.228 1.228 1.228s1.228-0.55 1.228-1.228c0-1.27 0-2.54 0-3.81-0.025-0.659-0.565-1.183-1.228-1.183s-1.202 0.524-1.227 1.181c-0.007 0.639-0.002 1.274-0.002 1.909zM11.23 6.243c0 0 0 0 0 0 0-0.679-0.551-1.23-1.23-1.23s-1.23 0.551-1.23 1.23c0 0 0 0 0 0-0.001 0.014-0.001 0.031-0.001 0.048 0 0.662 0.537 1.198 1.198 1.198 0.004 0 0.008-0 0.012-0 0.011 0 0.025 0.001 0.038 0.001 0.67 0 1.213-0.543 1.213-1.213 0-0.011-0-0.023-0-0.034z"></path>
</svg>
