<!-- Generated by IcoMoon.io -->
<svg version="1.1" xmlns="http://www.w3.org/2000/svg" width="20" height="20" viewBox="0 0 20 20">
<title>layouts</title>
<path d="M17.777 20h-4.444c-1.226-0.004-2.219-0.996-2.223-2.222v-15.554c0.003-1.227 0.996-2.22 2.222-2.224h4.444c1.226 0.004 2.22 0.997 2.223 2.223v15.555c-0.004 1.225-0.997 2.218-2.222 2.221zM6.666 20h-4.444c-1.226-0.004-2.218-0.996-2.223-2.221v-4.445c0.004-1.226 0.996-2.219 2.222-2.223h4.444c1.226 0.004 2.219 0.996 2.223 2.222v4.444c-0.004 1.226-0.996 2.219-2.222 2.223zM6.666 8.888h-4.444c-1.226-0.004-2.218-0.996-2.223-2.221v-4.444c0.004-1.226 0.996-2.219 2.222-2.223h4.444c1.226 0.004 2.219 0.996 2.223 2.222v4.444c-0.004 1.226-0.996 2.219-2.222 2.223z"></path>
</svg>
