<!-- Generated by IcoMoon.io -->
<svg version="1.1" xmlns="http://www.w3.org/2000/svg" width="27" height="20" viewBox="0 0 27 20">
<title>list</title>
<path d="M10.4 12.080c0.56 0 1.2 0 1.76 0 2.48 0 5.040 0 7.52 0 0.72 0 1.040-0.32 1.040-1.040 0-0.56 0-1.2 0-1.76 0-1.040-0.24-1.28-1.28-1.28-6.080 0-12.16 0-18.24 0-0.16 0-0.24 0-0.4 0-0.56 0-0.88 0.32-0.88 0.88 0 0.64 0 1.28 0 1.92 0 0.96 0.24 1.2 1.2 1.2 3.12 0.080 6.24 0.080 9.28 0.080z"></path>
<path d="M10.32 4.080c3.12 0 6.24 0 9.36 0 0.72 0 1.040-0.32 1.040-0.96 0-0.72 0-1.36 0-2.080 0-0.64-0.32-0.88-0.88-0.88-6.32 0-12.64 0-18.96 0-0.56-0.080-0.88 0.24-0.88 0.8 0 0.64 0 1.28 0 1.92 0 0.96 0.24 1.2 1.12 1.2 3.12 0 6.16 0 9.2 0z"></path>
<path d="M10.32 20c3.12 0 6.32 0 9.44 0 0.64 0 0.96-0.32 0.96-0.96s0-1.2 0-1.84c0-1.040-0.24-1.28-1.28-1.28-6.080 0-12.16 0-18.24 0-0.080 0-0.24 0-0.32 0-0.56 0.080-0.88 0.4-0.88 1.040s0 1.36 0 2c0 0.8 0.24 1.040 1.040 1.040 3.12 0 6.16 0 9.28 0z"></path>
<path d="M25.36 4c1.12 0 2-0.88 2.080-2 0-1.12-0.88-2-2.080-2-1.12 0-2.080 0.88-2.080 2s0.88 2 2.080 2z"></path>
<path d="M25.28 11.92c1.12 0 2.080-0.88 2.080-2s-0.88-2-2.080-2c-1.12 0-2.080 0.88-2.080 2 0.080 1.12 0.96 2 2.080 2z"></path>
<path d="M25.28 19.92c1.12 0 2.080-0.88 2.080-2s-0.88-2-2.080-2c-1.2 0-2.080 0.88-2.080 2 0.080 1.12 0.96 2 2.080 2z"></path>
</svg>
