<!-- Generated by IcoMoon.io -->
<svg version="1.1" xmlns="http://www.w3.org/2000/svg" width="27" height="20" viewBox="0 0 27 20">
<title>macd</title>
<path d="M9.373 10.667h-8.36c-0.374 0-0.678-0.309-0.678-0.667 0-0.368 0.302-0.667 0.678-0.667h0.656v-2.667h2.667v2.667h1.333v-2.704c0.051 0.034 0.101 0.068 0.151 0.102 0.965 0.662 1.804 1.445 2.516 2.355v0.247h0.188c0.309 0.419 0.592 0.863 0.85 1.333zM16.335 11.717v-1.051h1.333v1.838c0.408 0.167 0.853 0.293 1.335 0.383 0.424 0.079 0.87 0.127 1.332 0.145v-2.366h1.333v2.338c0.679-0.052 1.382-0.16 2.101-0.322 0.203-0.046 0.394-0.093 0.566-0.138v-1.877h0.656c0.375 0 0.678-0.298 0.678-0.667 0-0.357-0.303-0.667-0.678-0.667h-10.329c0.030 0.067 0.060 0.134 0.089 0.201 0.402 0.919 0.924 1.64 1.584 2.183zM21.669 18.351v1.649h2.667v-1.987c-0.902 0.177-1.793 0.29-2.667 0.337zM12.335 5.548v-5.548h-2.667v2.942c0.988 0.77 1.879 1.639 2.667 2.607z"></path>
<path d="M0.688 3.348c0.066 0.005 0.22 0.024 0.449 0.063 0.4 0.068 0.85 0.168 1.338 0.307 1.399 0.398 2.799 1.021 4.099 1.914 1.928 1.323 3.473 3.128 4.512 5.505 1.424 3.256 3.957 5.084 7.186 5.684 2.084 0.387 4.27 0.239 6.377-0.236 0.758-0.171 1.334-0.345 1.675-0.468l-0.907-2.508c-0.242 0.087-0.714 0.23-1.355 0.374-1.784 0.403-3.626 0.527-5.303 0.216-2.401-0.446-4.181-1.73-5.23-4.13-1.246-2.849-3.12-5.038-5.446-6.635-1.556-1.068-3.217-1.808-4.879-2.281-1.007-0.286-1.805-0.422-2.295-0.462l-0.221 2.657z"></path>
</svg>
