<!-- Generated by IcoMoon.io -->
<svg version="1.1" xmlns="http://www.w3.org/2000/svg" width="13" height="20" viewBox="0 0 13 20">
<title>mobile</title>
<path d="M10.401 0h-7.802c-1.445 0-2.599 0.361-2.599 1.792v15.615c0 1.43 1.164 2.593 2.599 2.593h7.801c1.446 0 2.6-1.161 2.6-2.592v-15.616c0-1.429-1.164-1.792-2.599-1.792zM8.462 19h-3.924c-0.353 0-0.638-0.652-0.638-1 0-0.359 0.28-1 0.638-1h3.925c0.352 0 0.637 0.652 0.637 1 0 0.359-0.28 1-0.638 1zM12 13.51c0 1.43-1.453 2.49-2.898 2.49h-5.204c-1.435 0-2.898-1.070-2.898-2.49v-9.12c0-1.431 1.453-3.39 2.898-3.39h5.205c1.434 0 2.897 1.97 2.897 3.39v9.12z"></path>
</svg>
