<!-- Generated by IcoMoon.io -->
<svg version="1.1" xmlns="http://www.w3.org/2000/svg" width="20" height="20" viewBox="0 0 20 20">
<title>multi</title>
<path d="M8.333 7.5c0 0.5-0.417 0.833-0.833 0.833h-6.667c-0.5 0-0.833-0.417-0.833-0.833v-6.667c0-0.5 0.417-0.833 0.833-0.833h6.667c0.5 0 0.833 0.417 0.833 0.833v6.667z"></path>
<path d="M20 7.5c0 0.5-0.417 0.833-0.833 0.833h-6.667c-0.5 0-0.833-0.417-0.833-0.833v-6.667c0-0.5 0.417-0.833 0.833-0.833h6.667c0.5 0 0.833 0.417 0.833 0.833v6.667z"></path>
<path d="M20 19.167c0 0.5-0.417 0.833-0.833 0.833h-6.667c-0.5 0-0.833-0.417-0.833-0.833v-6.667c0-0.5 0.417-0.833 0.833-0.833h6.667c0.5 0 0.833 0.417 0.833 0.833v6.667z"></path>
<path d="M8.333 19.167c0 0.5-0.417 0.833-0.833 0.833h-6.667c-0.5 0-0.833-0.417-0.833-0.833v-6.667c0-0.5 0.417-0.833 0.833-0.833h6.667c0.5 0 0.833 0.417 0.833 0.833v6.667z"></path>
</svg>
