<!-- Generated by IcoMoon.io -->
<svg version="1.1" xmlns="http://www.w3.org/2000/svg" width="12" height="20" viewBox="0 0 12 20">
<title>ok</title>
<path d="M3.644 14.63c-1.025-0.479-2.018-0.865-2.93-1.39-0.95-0.547-0.939-1.872-0.041-2.447 0.554-0.355 1.113-0.295 1.669 0.035 1.097 0.651 2.285 0.979 3.565 0.953 1.188-0.024 2.293-0.347 3.311-0.955 0.575-0.343 1.151-0.391 1.709-0.002 0.845 0.589 0.846 1.834-0.050 2.391-0.667 0.415-1.416 0.7-2.137 1.024-0.258 0.116-0.54 0.178-0.894 0.291 0.143 0.174 0.244 0.317 0.366 0.439 0.785 0.791 1.545 1.61 2.371 2.357 0.791 0.716 0.642 1.79 0.151 2.249-0.652 0.61-1.49 0.553-2.236-0.189-0.803-0.798-1.61-1.59-2.396-2.404-0.251-0.26-0.412-0.243-0.655 0.008-0.799 0.825-1.616 1.632-2.432 2.44-0.714 0.707-1.567 0.756-2.195 0.137-0.605-0.597-0.554-1.51 0.13-2.2 0.785-0.792 1.576-1.577 2.362-2.367 0.126-0.125 0.239-0.265 0.332-0.37z"></path>
<path d="M5.788 10.233c-2.834 0.008-5.14-2.27-5.145-5.083-0.005-2.869 2.258-5.145 5.122-5.15 2.842-0.005 5.142 2.263 5.149 5.077 0.006 2.86-2.268 5.148-5.126 5.156zM5.771 7.322c1.213 0.002 2.227-1.009 2.221-2.216-0.006-1.183-1.003-2.191-2.186-2.211-1.192-0.019-2.236 1.002-2.25 2.201-0.015 1.199 1.006 2.224 2.215 2.226z"></path>
</svg>
