<!-- Generated by IcoMoon.io -->
<svg version="1.1" xmlns="http://www.w3.org/2000/svg" width="14" height="20" viewBox="0 0 14 20">
<title>pause</title>
<path d="M1.011 0h3.085c0.558 0 1.011 0.452 1.011 1.011v17.979c0 0.558-0.452 1.011-1.011 1.011h-3.085c-0.558 0-1.011-0.452-1.011-1.011v-17.979c0-0.558 0.452-1.011 1.011-1.011z"></path>
<path d="M10.213 0h3.085c0.558 0 1.011 0.452 1.011 1.011v17.979c0 0.558-0.452 1.011-1.011 1.011h-3.085c-0.558 0-1.011-0.452-1.011-1.011v-17.979c0-0.558 0.452-1.011 1.011-1.011z"></path>
</svg>
