<!-- Generated by IcoMoon.io -->
<svg version="1.1" xmlns="http://www.w3.org/2000/svg" width="20" height="20" viewBox="0 0 20 20">
<title>point</title>
<path d="M20 10.833h-2.578c-0.392 3.458-3.125 6.193-6.588 6.582v2.585h-1.667v-2.585c-3.463-0.388-6.198-3.123-6.588-6.582h-2.578v-1.667h2.578c0.39-3.458 3.125-6.193 6.588-6.582v-2.585h1.667v2.585c3.463 0.388 6.197 3.123 6.588 6.582h2.578v1.667zM10.833 4.252v2.415h-1.667v-2.415c-2.547 0.368-4.555 2.373-4.923 4.915h2.422v1.667h-2.422c0.368 2.542 2.377 4.547 4.923 4.915v-2.415h1.667v2.415c2.545-0.368 4.553-2.373 4.923-4.915h-2.423v-1.667h2.423c-0.37-2.542-2.378-4.547-4.923-4.915z"></path>
</svg>
