<!-- Generated by IcoMoon.io -->
<svg version="1.1" xmlns="http://www.w3.org/2000/svg" width="20" height="20" viewBox="0 0 20 20">
<title>question</title>
<path d="M9.984 0c-5.516 0.009-9.984 4.483-9.984 10 0 5.523 4.477 10 10 10s10-4.477 10-10c0-0.003 0-0.005 0-0.008-0.014-5.521-4.493-9.992-10.016-9.992-0 0-0 0-0 0zM11.145 15.311c-0.034 0.608-0.536 1.089-1.15 1.089-0.636 0-1.151-0.515-1.151-1.151s0.515-1.151 1.151-1.151c0.614 0 1.115 0.48 1.149 1.086 0 0.026 0 0.048 0 0.071s0 0.029 0 0.044 0 0 0 0v0zM11.309 10.286c-0.156 0.040-0.269 0.18-0.269 0.345 0 0.021 0.002 0.042 0.005 0.062 0.007 0.108 0.011 0.238 0.011 0.368s-0.004 0.259-0.012 0.387c-0.012 0.519-0.45 0.95-0.989 0.95-0.015 0-0.030-0-0.045-0.001-0.020 0.002-0.045 0.003-0.071 0.003-0.518 0-0.942-0.403-0.975-0.912-0.026-0.34-0-0.682-0-1.020h-0.010c0-0.297-0.010-0.596 0-0.895 0.004-0.498 0.363-0.911 0.836-0.999 0.186-0.041 0.373-0.056 0.549-0.11 0.573-0.155 0.987-0.67 0.987-1.281 0-0.732-0.593-1.325-1.325-1.325-0.646 0-1.183 0.462-1.301 1.073-0.025 0.107-0.043 0.21-0.058 0.311-0.070 0.543-0.529 0.958-1.085 0.958-0.094 0-0.185-0.012-0.272-0.034-0.416-0.071-0.735-0.435-0.735-0.874 0-0.028 0.001-0.056 0.004-0.083 0.113-1.669 1.315-3.031 2.897-3.386 0.192-0.034 0.384-0.050 0.581-0.050 1.673 0 3.066 1.203 3.358 2.792 0.022 0.159 0.033 0.319 0.033 0.482 0 1.439-0.859 2.678-2.093 3.232z"></path>
</svg>
