<!-- Generated by IcoMoon.io -->
<svg version="1.1" xmlns="http://www.w3.org/2000/svg" width="20" height="20" viewBox="0 0 20 20">
<title>ray</title>
<path d="M3.148 15.085l5.687-5.687c-0.055-0.207-0.085-0.424-0.085-0.648 0-1.381 1.119-2.5 2.5-2.5 0.224 0 0.441 0.029 0.648 0.085l5.173-5.173c0.488-0.488 1.277-0.492 1.768-0.001 0.488 0.488 0.492 1.276-0.001 1.768l-5.173 5.173c0.055 0.207 0.085 0.424 0.085 0.648 0 1.381-1.119 2.5-2.5 2.5-0.224 0-0.441-0.029-0.648-0.085l-5.687 5.687c0.055 0.207 0.085 0.424 0.085 0.648 0 1.381-1.119 2.5-2.5 2.5s-2.5-1.119-2.5-2.5c0-1.381 1.119-2.5 2.5-2.5 0.224 0 0.441 0.029 0.648 0.085zM11.25 10c0.69 0 1.25-0.56 1.25-1.25s-0.56-1.25-1.25-1.25c-0.69 0-1.25 0.56-1.25 1.25s0.56 1.25 1.25 1.25zM2.5 18.75c0.69 0 1.25-0.56 1.25-1.25s-0.56-1.25-1.25-1.25c-0.69 0-1.25 0.56-1.25 1.25s0.56 1.25 1.25 1.25z"></path>
</svg>
