<!-- Generated by IcoMoon.io -->
<svg version="1.1" xmlns="http://www.w3.org/2000/svg" width="22" height="20" viewBox="0 0 22 20">
<title>rotate-device</title>
<path d="M4.606 5.951v0c-0.517 0-0.939 0.423-0.939 0.939v12.089c0 0.517 0.423 0.939 0.939 0.939h16.259c0.517 0 0.939-0.423 0.939-0.939v-12.089c0-0.517-0.423-0.939-0.939-0.939h-16.259zM4.643 12.466c0.272 0 0.492 0.22 0.492 0.492s-0.22 0.492-0.492 0.492c-0.271 0-0.492-0.22-0.492-0.492s0.22-0.492 0.492-0.492v0zM5.545 7.418h14.645v11.064h-14.645v-11.064z"></path>
<path d="M0 17.198v-16.259c0-0.517 0.423-0.939 0.939-0.939h12.088c0.517 0 0.939 0.423 0.939 0.939v5.664h-1.435v-4.989h-11.064v14.645h1.818v1.878h-2.346c-0.517 0-0.939-0.423-0.939-0.939v0z"></path>
<path d="M15.175 0.717c0.414 0.001 0.739 0.079 1.080 0.215 0.385 0.153 0.737 0.381 1.031 0.676s0.524 0.647 0.676 1.032c0.152 0.382 0.226 0.794 0.214 1.213l-0.901-0.025c0.009-0.296-0.044-0.588-0.151-0.856-0.106-0.266-0.267-0.513-0.478-0.724s-0.458-0.373-0.724-0.478c-0.269-0.107-0.584-0.216-0.881-0.207v-0.844c0.044-0.001-0.281-0.002 0.133-0.001z"></path>
<path d="M16.674 3.659h2.056l-0.995 1.206-1.061-1.206z"></path>
</svg>
