<!-- Generated by IcoMoon.io -->
<svg version="1.1" xmlns="http://www.w3.org/2000/svg" width="17" height="20" viewBox="0 0 17 20">
<title>rouble</title>
<path d="M14.933 1.668c-1.2-1.133-2.8-1.667-4.867-1.667h-7.533v9.867h-2.533v2.133h2.533v1.733h-2.533v1.933h2.533v4.333h2.667v-4.333h4.4v-1.933h-4.4v-1.733h4.867c2.067 0 3.733-0.533 4.867-1.6 1.133-1.133 1.733-2.6 1.733-4.4s-0.6-3.267-1.733-4.333zM13 8.735c-0.667 0.733-1.667 1.067-3 1.067h-4.8v-7.667h4.867c1.333 0 2.333 0.4 3 1.133 0.6 0.733 0.933 1.667 0.933 2.733 0 1.133-0.333 2-1 2.733z"></path>
</svg>
