<!-- Generated by IcoMoon.io -->
<svg version="1.1" xmlns="http://www.w3.org/2000/svg" width="18" height="20" viewBox="0 0 18 20">
<title>sound</title>
<path d="M12.738 10.063v8.876c0.009 0.051 0.014 0.11 0.014 0.171 0 0.091-0.012 0.18-0.035 0.264-0.092 0.245-0.251 0.454-0.454 0.608-0.022 0.004-0.044 0.005-0.066 0.005-0.221 0-0.421-0.091-0.564-0.238-1.816-1.742-3.609-3.505-5.425-5.246-0.171-0.153-0.394-0.251-0.64-0.264-1.256-0.024-2.51-0.010-3.763-0.013-0.069 0.011-0.149 0.017-0.231 0.017-0.875 0-1.585-0.71-1.585-1.585 0-0.067 0.004-0.133 0.012-0.197q-0.001-2.472-0.001-4.953c-0.003-0.038-0.005-0.082-0.005-0.127 0-0.837 0.678-1.515 1.515-1.515 0.047 0 0.094 0.002 0.14 0.006 1.291-0.012 2.59 0.007 3.887-0.015 0.236-0.010 0.448-0.102 0.611-0.247q2.676-2.596 5.324-5.222c0.136-0.218 0.375-0.361 0.647-0.361 0.068 0 0.134 0.009 0.197 0.026 0.26 0.134 0.438 0.404 0.438 0.716 0 0.056-0.006 0.11-0.017 0.163q0.004 4.562 0.001 9.13zM16.139 14.566l-1.812-1.802c0.661-0.72 1.066-1.683 1.066-2.742 0-1.037-0.389-1.984-1.030-2.702l1.812-1.771c1.179 1.135 1.912 2.727 1.912 4.49 0 1.781-0.748 3.388-1.946 4.523z"></path>
</svg>
