<!-- Generated by IcoMoon.io -->
<svg version="1.1" xmlns="http://www.w3.org/2000/svg" width="21" height="20" viewBox="0 0 21 20">
<title>star</title>
<path d="M3.869 18.497c0.131-0.523 0.261-1.176 0.261-1.83 0.261-1.176 0.392-2.484 0.654-3.66 0-0.131 0-0.261-0.131-0.392-1.307-1.176-2.614-2.484-3.922-3.66-0.131-0.261-0.261-0.523-0.392-0.784-0.131-0.392 0-0.784 0.392-0.915 0.261-0.131 0.654-0.261 1.046-0.261 1.699-0.261 3.399-0.523 5.229-0.784 0.131 0 0.261-0.131 0.392-0.261 0.523-1.569 1.307-3.137 2.092-4.706 0.131-0.261 0.392-0.654 0.523-0.784 0.392-0.392 0.915-0.392 1.176 0 0.261 0.261 0.392 0.523 0.523 0.784 0.784 1.569 1.569 3.137 2.353 4.706 0 0.131 0.261 0.261 0.261 0.261 1.699 0.261 3.399 0.523 5.229 0.784 0.261 0 0.523 0.131 0.784 0.131 0.654 0.261 0.784 0.784 0.523 1.438-0.131 0.261-0.392 0.523-0.654 0.784-1.176 1.176-2.484 2.353-3.66 3.529-0.131 0.131-0.131 0.261-0.131 0.261 0.261 1.83 0.654 3.529 0.915 5.359 0 0.261 0 0.523 0 0.784-0.131 0.523-0.392 0.784-0.915 0.654-0.261 0-0.654-0.131-0.915-0.261-1.569-0.784-3.137-1.569-4.706-2.353-0.131-0.131-0.392-0.131-0.523 0-1.569 0.784-3.137 1.569-4.706 2.484-0.131 0.131-0.261 0.131-0.523 0.261-0.654-0.131-1.176-0.523-1.176-1.569z"></path>
</svg>
