<!-- Generated by IcoMoon.io -->
<svg version="1.1" xmlns="http://www.w3.org/2000/svg" width="20" height="20" viewBox="0 0 20 20">
<title>trade-journal</title>
<path d="M9.999 0c5.448-0.014 9.99 4.469 10.001 9.87 0.011 5.574-4.424 10.119-9.888 10.13-5.628 0.011-10.113-4.441-10.112-10.040 0.001-5.488 4.477-9.946 9.999-9.96zM10.014 18.661c4.784-0.018 8.661-3.901 8.642-8.658-0.019-4.876-3.902-8.697-8.816-8.676-4.657 0.020-8.526 3.978-8.514 8.711 0.011 4.752 3.928 8.639 8.688 8.622z"></path>
<path d="M3.349 10c2.187 0 4.429 0 6.651 0 0-2.222 0-4.452 0-6.649 2.222-0.241 6.449 1.932 6.676 6.303 0.204 3.933-3.039 7.188-6.95 7.011-4.327-0.196-6.601-4.443-6.377-6.666z"></path>
</svg>
