<!-- Generated by IcoMoon.io -->
<svg version="1.1" xmlns="http://www.w3.org/2000/svg" width="24" height="20" viewBox="0 0 24 20">
<title>twitter</title>
<path d="M24.609 2.367c-0.906 0.402-1.878 0.673-2.9 0.795 1.042-0.625 1.843-1.614 2.22-2.794-0.975 0.578-2.056 0.999-3.206 1.226-0.92-0.982-2.232-1.594-3.685-1.594-2.789 0-5.049 2.261-5.049 5.049 0 0.396 0.045 0.781 0.131 1.151-4.196-0.211-7.917-2.22-10.406-5.275-0.435 0.746-0.684 1.612-0.684 2.538 0 1.752 0.891 3.297 2.246 4.202-0.828-0.026-1.606-0.252-2.288-0.631 0 0.021-0.001 0.043-0.001 0.063 0 2.446 1.74 4.487 4.051 4.951-0.424 0.115-0.869 0.177-1.331 0.177-0.326 0-0.642-0.032-0.949-0.091 0.643 2.006 2.508 3.466 4.717 3.506-1.728 1.354-3.905 2.162-6.271 2.162-0.408 0-0.809-0.024-1.205-0.071 2.234 1.432 4.888 2.268 7.74 2.268 9.287 0 14.366-7.694 14.366-14.366 0-0.219-0.005-0.437-0.014-0.652 0.986-0.712 1.842-1.602 2.518-2.614z"></path>
</svg>
