<!-- Generated by IcoMoon.io -->
<svg version="1.1" xmlns="http://www.w3.org/2000/svg" width="18" height="20" viewBox="0 0 18 20">
<title>user</title>
<path d="M0.034 20c-0.289-3.246 1.274-5.623 4.61-6.76 3.146-1.072 6.31-1.006 9.362 0.374 1.859 0.841 3.174 2.198 3.586 4.203 0.143 0.701 0.127 1.433 0.186 2.182-5.953 0-11.837 0-17.743 0z"></path>
<path d="M3.81 4.993c0.006-2.753 2.289-4.991 5.097-4.993 2.783-0.002 5.077 2.274 5.061 5.028-0.014 2.736-2.302 4.977-5.077 4.972-2.801-0.004-5.088-2.258-5.081-5.007z"></path>
</svg>
